<?xml version="1.0" encoding="utf-8"?>
<!-- Generator: Adobe Illustrator 17.0.0, SVG Export Plug-In . SVG Version: 6.00 Build 0)  -->
<!DOCTYPE svg PUBLIC "-//W3C//DTD SVG 1.1//EN" "http://www.w3.org/Graphics/SVG/1.1/DTD/svg11.dtd">
<svg version="1.1" id="Layer_1" xmlns="http://www.w3.org/2000/svg" xmlns:xlink="http://www.w3.org/1999/xlink" x="0px" y="0px"
	 width="40px" height="40px" viewBox="0 0 40 40" enable-background="new 0 0 40 40" xml:space="preserve">
<rect fill="#FFFFFF" stroke="#000000" stroke-miterlimit="10" width="40" height="40"/>
<g>
	<g>
		<g>
			<g>
				<path d="M23.663,105.525c-0.065-3.953,0.008-7.899,0.994-11.776c0.465-1.83,0.139-3.713-0.349-5.507
					c-1.036-3.81-1.238-7.727-1.656-11.618c-0.018-0.164-0.051-0.326-0.078-0.489c-0.074,0.148-0.195,0.29-0.216,0.445
					c-0.566,4.233-1.591,8.38-2.35,12.575c-0.553,3.055-0.663,6.187-1.055,9.274c-0.366,2.878-0.924,5.732-1.251,8.613
					c-0.426,3.754-0.673,7.528-1.069,11.285c-0.185,1.756-0.226,3.573-1.368,5.096c-0.277,0.37-0.041,0.833,0.114,1.209
					c0.736,1.784-0.582,2.741-1.56,3.772c-0.944,0.995-2.223,1.235-3.495,0.809c-1.188-0.398-2.127-1.209-2.655-2.398
					c-0.308-0.694-0.51-1.464-0.076-2.121c0.558-0.846,0.553-1.607,0.421-2.615c-0.378-2.897-0.426-5.794-0.073-8.756
					c0.586-4.927,1.238-9.857,1.483-14.825c0.474-9.614,0.976-19.227,1.496-28.839c0.051-0.951,0.067-1.751-0.488-2.665
					c-0.547-0.9-0.18-2.119-0.089-3.196c0.266-3.153,1.332-6.146,1.881-9.243c0.315-1.775,0.356-3.548,0.133-5.329
					c-0.139-1.111-0.689-1.527-1.727-1.119c-1.098,0.432-1.969,0.202-2.803-0.52c-0.555-0.481-1.152-0.919-1.667-1.439
					c-1.13-1.139-1.678-2.377-1.453-4.135c0.667-5.2,1.485-10.397,1.375-15.671C6.065,25.479,8,24.14,8.802,24.408
					c0.329,0.11,0.23,0.386,0.22,0.617c-0.054,1.207,0.416,1.817,1.842,2.378c0.981,0.386,2.208,0.081,2.871-0.723
					c0.27-0.328,0.435-0.704,0.552-1.119c0.411-1.456,0.11-1.785-1.269-1.412c-1.981,0.536-3.397-0.519-3.727-2.528
					c-0.096-0.584-0.278-1.154-0.402-1.735c-0.221-1.033-0.233-2.035,0.624-2.824c0.464-0.427,0.363-0.955,0.32-1.47
					c-0.052-0.62,0.092-1.104,0.722-1.358c0.338-0.136,0.66-0.389,0.702-0.734c0.165-1.35,1.022-2.477,0.942-3.96
					c-0.113-2.084,0.185-4.19,0.298-6.287c0.025-0.464,0.093-0.819,0.706-0.776c0.544,0.038,0.74,0.288,0.702,0.806
					c-0.171,2.336-0.443,4.672-0.453,7.008c-0.005,1.057,0.226,2.148,0.311,3.228c0.007,0.086,0.108,0.192,0.193,0.239
					c0.812,0.443,1.531,0.819,0.008,1.342c-0.472,0.162,0.037,0.471,0.219,0.559c0.934,0.45,1.234,1.17,1.042,2.156
					c-0.031,0.16-0.029,0.398,0.066,0.5c0.612,0.665,0.612,1.255-0.09,1.863c-0.158,0.137-0.292,0.442-0.073,0.666
					c0.285,0.291,0.518,0,0.733-0.137c1.667-1.057,1.985-1.037,2.968,0.746c3.15,5.711,5.871,11.606,7.361,18
					c0.047,0.201,0.124,0.396,0.187,0.594c0.257-0.137,0.243-0.39,0.265-0.624c0.432-4.751,0.599-9.496-0.167-14.235
					c-0.211-1.303-1.315-1.818-2.139-2.572c-0.246-0.225-0.67-0.117-0.957,0.166c-0.249,0.246-0.498,0.495-0.768,0.717
					c-1.018,0.838-1.433,0.713-1.854-0.559c-0.208-0.63-0.453-1.253-0.452-1.933c0.002-0.847-0.702-1.086-1.273-1.367
					c-0.65-0.32-0.849-0.756-1.078-1.462c-0.466-1.433-0.257-3.023-1.227-4.36c-0.611-0.843-0.62-1.971-0.08-2.99
					c0.259-0.489,0.127-1.033,0.13-1.551c0.025-4.76,4.073-7.651,8.627-6.155c0.63,0.207,1.105,0.601,1.42,1.175
					c0.859,1.561,1.547,3.157,0.923,4.994c-0.08,0.236-0.13,0.476,0.027,0.705c0.881,1.29,0.236,2.389-0.445,3.476
					c-0.147,0.235-0.474,0.421-0.504,0.657c-0.202,1.595-0.787,3.012-1.755,4.293c-0.169,0.223-0.295,0.646,0.281,0.638
					c0.686-0.01,0.919,0.445,0.98,1.006c0.123,1.139,0.812,1.765,1.778,2.269c1.405,0.734,2.908,1.199,4.373,1.768
					c2.287,0.889,2.76,1.648,2.874,4.066c0.161,3.425,0.519,6.816,1.47,10.149c0.483,1.692,0.682,3.496,0.671,5.289
					c-0.01,1.666-0.622,2.63-2.237,2.966c-1.578,0.328-2.147,1.243-2.608,2.705c-1.104,3.499-0.606,6.911,0.033,10.37
					c0.343,1.857,0.802,3.647,0.654,5.64c-0.287,3.871,0.304,7.754,0.627,11.625c0.472,5.652,1.037,11.299,0.547,16.98
					c-0.123,1.43-0.813,2.716-0.949,4.175c-0.673,7.243-1.025,14.458,0.906,21.586c-0.387,1.972,1.131,2.555,2.408,3.33
					c1.258,0.764,2.502,1.541,3.949,1.919c0.41,0.107,0.803,0.307,0.833,0.824c0.03,0.532-0.381,0.737-0.762,0.887
					c-2.968,1.164-5.956,1.377-8.934,0.049c-0.679-0.303-1.366-0.385-2.047-0.215c-1.037,0.259-2.007,0.068-2.992-0.215
					c-1.137-0.327-1.825-0.947-1.761-2.241c0.048-0.962-0.732-1.671-0.86-2.64c-0.476-3.585-0.597-7.183-0.633-10.79
					C23.649,108.883,23.663,107.204,23.663,105.525z M18.625,43.441c-0.09-0.466-0.196-1.261-0.403-2.029
					c-0.246-0.912-1.037-0.541-1.585-0.502c-0.683,0.049-0.258,0.584-0.208,0.892c0.203,1.24,0.498,2.467-0.275,3.643
					c-0.31,0.472-0.051,0.664,0.456,0.726C17.87,46.324,18.541,45.537,18.625,43.441z M30.103,30.093
					c-0.336,0.054-0.76-0.171-0.864,0.358c-0.104,0.525,0.293,0.662,0.655,0.768c0.563,0.164,1.14,0.285,1.715,0.409
					c0.226,0.049,0.512,0.172,0.651-0.105c0.146-0.291-0.047-0.543-0.26-0.727C31.452,30.32,30.765,30.207,30.103,30.093z"/>
			</g>
		</g>
	</g>
</g>
</svg>
