<?xml version="1.0" encoding="utf-8"?>
<!-- Generator: Adobe Illustrator 17.0.0, SVG Export Plug-In . SVG Version: 6.00 Build 0)  -->
<!DOCTYPE svg PUBLIC "-//W3C//DTD SVG 1.1//EN" "http://www.w3.org/Graphics/SVG/1.1/DTD/svg11.dtd">
<svg version="1.1" id="Layer_1" xmlns="http://www.w3.org/2000/svg" xmlns:xlink="http://www.w3.org/1999/xlink" x="0px" y="0px"
	 width="40px" height="40px" viewBox="0 0 40 40" enable-background="new 0 0 40 40" xml:space="preserve">
<g>
	<path fill='#729d34' d="M26.19,39.453c-1.49-6.394-4.211-12.289-7.361-18c-0.983-1.783-1.301-1.803-2.968-0.746
		c-0.215,0.137-0.448,0.428-0.733,0.137c-0.219-0.224-0.085-0.529,0.073-0.666c0.702-0.608,0.702-1.198,0.09-1.863
		c-0.095-0.102-0.097-0.34-0.066-0.5c0.192-0.986-0.108-1.706-1.042-2.156c-0.182-0.088-0.691-0.397-0.219-0.559
		c1.523-0.523,0.804-0.899-0.008-1.342c-0.085-0.047-0.186-0.153-0.193-0.239c-0.085-1.08-0.316-2.171-0.311-3.228
		c0.01-2.336,0.282-4.672,0.453-7.008c0.038-0.518-0.158-0.768-0.702-0.806c-0.613-0.043-0.681,0.312-0.706,0.776
		c-0.113,2.097-0.411,4.203-0.298,6.287c0.08,1.483-0.777,2.61-0.942,3.96c-0.042,0.345-0.364,0.598-0.702,0.734
		c-0.63,0.254-0.774,0.738-0.722,1.358c0.043,0.515,0.144,1.043-0.32,1.47c-0.857,0.789-0.845,1.791-0.624,2.824
		c0.124,0.581,0.306,1.151,0.402,1.735c0.33,2.009,1.746,3.064,3.727,2.528c1.379-0.373,1.68-0.044,1.269,1.412
		c-0.117,0.415-0.282,0.791-0.552,1.119c-0.663,0.804-1.89,1.109-2.871,0.723c-1.426-0.561-1.896-1.171-1.842-2.378
		c0.01-0.231,0.109-0.507-0.22-0.617C8,24.14,6.065,25.479,6.082,26.342C6.178,30.935,5.57,35.471,4.97,40h21.392
		C26.302,39.818,26.233,39.638,26.19,39.453z"/>
	<path fill='#729d34' d="M26.433,40h10.766c-0.099-0.569-0.216-1.133-0.373-1.682c-0.951-3.333-1.309-6.724-1.47-10.149
		c-0.114-2.418-0.587-3.177-2.874-4.066c-1.465-0.569-2.968-1.034-4.373-1.768c-0.966-0.504-1.655-1.13-1.778-2.269
		c-0.061-0.561-0.294-1.016-0.98-1.006c-0.576,0.008-0.45-0.415-0.281-0.638c0.968-1.281,1.553-2.698,1.755-4.293
		c0.03-0.236,0.357-0.422,0.504-0.657c0.681-1.087,1.326-2.186,0.445-3.476c-0.157-0.229-0.107-0.469-0.027-0.705
		c0.624-1.837-0.064-3.433-0.923-4.994c-0.315-0.574-0.79-0.968-1.42-1.175c-4.554-1.496-8.602,1.395-8.627,6.155
		c-0.003,0.518,0.129,1.062-0.13,1.551c-0.54,1.019-0.531,2.147,0.08,2.99c0.97,1.337,0.761,2.927,1.227,4.36
		c0.229,0.706,0.428,1.142,1.078,1.462c0.571,0.281,1.275,0.52,1.273,1.367c-0.001,0.68,0.244,1.303,0.452,1.933
		c0.421,1.272,0.836,1.397,1.854,0.559c0.27-0.222,0.519-0.471,0.768-0.717c0.287-0.283,0.711-0.391,0.957-0.166
		c0.824,0.754,1.928,1.269,2.139,2.572c0.766,4.739,0.599,9.484,0.167,14.235C26.622,39.635,26.621,39.857,26.433,40z
		 M30.103,30.093c0.662,0.114,1.349,0.227,1.897,0.703c0.213,0.184,0.406,0.436,0.26,0.727c-0.139,0.277-0.425,0.154-0.651,0.105
		c-0.575-0.124-1.152-0.245-1.715-0.409c-0.362-0.106-0.759-0.243-0.655-0.768C29.343,29.922,29.767,30.147,30.103,30.093z"/>
</g>
</svg>
