<?xml version="1.0" encoding="utf-8"?>
<!-- Generator: Adobe Illustrator 17.0.0, SVG Export Plug-In . SVG Version: 6.00 Build 0)  -->
<!DOCTYPE svg PUBLIC "-//W3C//DTD SVG 1.1//EN" "http://www.w3.org/Graphics/SVG/1.1/DTD/svg11.dtd">
<svg version="1.1" id="Layer_1" xmlns="http://www.w3.org/2000/svg" xmlns:xlink="http://www.w3.org/1999/xlink" x="0px" y="0px"
	 width="40px" height="40px" viewBox="0 0 40 40" enable-background="new 0 0 40 40" xml:space="preserve">
<g>
	<polygon fill='#729d34' points="23.623,7.03 18.261,7.976 22.887,11.215 28.249,10.269 	"/>
	<polygon fill='#729d34' points="33.471,5.294 28.109,6.24 32.735,9.479 35.742,8.948 35.327,6.593 	"/>
	<polygon fill='#729d34' points="13.957,12.79 18.401,12.006 13.775,8.767 9.331,9.551 	"/>
	<polygon fill='#729d34' points="4.846,10.341 3.76,10.533 4.454,14.465 9.471,13.58 	"/>
</g>
<g>
	<polygon fill='#729d34' points="24.623,18.465 19.178,18.465 23.171,14.472 28.616,14.472 	"/>
	<polygon fill='#729d34' points="34.623,18.465 29.178,18.465 33.171,14.472 36.225,14.472 36.225,16.864 	"/>
	<polygon fill='#729d34' points="14.104,14.472 18.616,14.472 14.623,18.465 10.111,18.465 	"/>
	<polygon fill='#729d34' points="5.556,18.465 4.454,18.465 4.454,14.472 9.549,14.472 	"/>
</g>
<path fill='#729d34' d="M4.454,18.465V35h31.771V18.465H4.454z M8.042,25h11.136v1H8.042V25z M27.602,31H8.042v-1h19.56V31z M32.926,24H8.042v-1
	h24.884V24z"/>
</svg>
